<?xml version="1.0" encoding="UTF-8" standalone="no"?>
<svg
   xmlns:dc="http://purl.org/dc/elements/1.1/"
   xmlns:cc="http://creativecommons.org/ns#"
   xmlns:rdf="http://www.w3.org/1999/02/22-rdf-syntax-ns#"
   xmlns:svg="http://www.w3.org/2000/svg"
   xmlns="http://www.w3.org/2000/svg"
   xmlns:xlink="http://www.w3.org/1999/xlink"
   xmlns:sodipodi="http://sodipodi.sourceforge.net/DTD/sodipodi-0.dtd"
   xmlns:inkscape="http://www.inkscape.org/namespaces/inkscape"
   version="1.1"
   id="svg62"
   width="601.2207"
   height="601.22064"
   viewBox="0 0 601.22072 601.22065"
   sodipodi:docname="logo2.svg"
   inkscape:version="1.0.2 (e86c870879, 2021-01-15)"
   inkscape:export-filename="/home/arnoldobr/public_html/git/sim_server/sim_server_v2/favicon/logo2.png"
   inkscape:export-xdpi="319.35031"
   inkscape:export-ydpi="319.35031">
  <metadata
     id="metadata68">
    <rdf:RDF>
      <cc:Work
         rdf:about="">
        <dc:format>image/svg+xml</dc:format>
        <dc:type
           rdf:resource="http://purl.org/dc/dcmitype/StillImage" />
        <dc:title></dc:title>
      </cc:Work>
    </rdf:RDF>
  </metadata>
  <defs
     id="defs66">
    <linearGradient
       inkscape:collect="always"
       id="linearGradient416">
      <stop
         style="stop-color:#b3957b;stop-opacity:1"
         offset="0"
         id="stop412" />
      <stop
         style="stop-color:#d5c79f;stop-opacity:1"
         offset="1"
         id="stop414" />
    </linearGradient>
    <linearGradient
       inkscape:collect="always"
       xlink:href="#linearGradient416"
       id="linearGradient418"
       x1="310.17365"
       y1="513.11914"
       x2="308.72382"
       y2="120.97537"
       gradientUnits="userSpaceOnUse" />
  </defs>
  <sodipodi:namedview
     pagecolor="#ffffff"
     bordercolor="#666666"
     borderopacity="1"
     objecttolerance="10"
     gridtolerance="10"
     guidetolerance="10"
     inkscape:pageopacity="0"
     inkscape:pageshadow="2"
     inkscape:window-width="640"
     inkscape:window-height="480"
     id="namedview64"
     showgrid="false"
     showguides="true"
     inkscape:guide-bbox="true"
     inkscape:snap-intersection-paths="false"
     inkscape:snap-bbox="true"
     inkscape:snap-bbox-midpoints="true"
     inkscape:bbox-paths="true"
     inkscape:object-nodes="true"
     inkscape:bbox-nodes="true"
     inkscape:object-paths="true"
     inkscape:zoom="0.64519741"
     inkscape:cx="-16.156544"
     inkscape:cy="427.77605"
     inkscape:current-layer="g70"
     inkscape:document-rotation="0"
     inkscape:snap-bbox-edge-midpoints="true" />
  <g
     inkscape:groupmode="layer"
     inkscape:label="Image"
     id="g70"
     transform="translate(-1354.3718,-820.12734)">
    <path
       id="rect92"
       style="fill:#a51d1e;fill-opacity:1;stroke-width:1.4;stroke-linecap:round;stroke-linejoin:round"
       d="M 50.248047,-11.343746 C 22.410447,-11.343746 0,11.066641 0,38.904301 V 539.62885 c 0,27.8376 22.410447,50.24804 50.248047,50.24804 H 550.97266 c 27.8376,0 50.24804,-22.41044 50.24804,-50.24804 V 38.904301 c 0,-27.83766 -22.41044,-50.248047 -50.24804,-50.248047 z"
       transform="translate(1354.3718,831.47109)"
       sodipodi:nodetypes="cssccsscc" />
    <rect
       style="opacity:0.81;fill:#100f01;fill-opacity:1;stroke:none;stroke-width:20.062;stroke-linecap:round;stroke-linejoin:round;stroke-miterlimit:4;stroke-dasharray:none"
       id="rect1162"
       width="471.14279"
       height="432.91599"
       x="1419.4104"
       y="910.15802"
       ry="56.329632" />
    <path
       id="path36"
       style="color:#000000;font-style:normal;font-variant:normal;font-weight:normal;font-stretch:normal;font-size:medium;line-height:normal;font-family:sans-serif;font-variant-ligatures:normal;font-variant-position:normal;font-variant-caps:normal;font-variant-numeric:normal;font-variant-alternates:normal;font-variant-east-asian:normal;font-feature-settings:normal;font-variation-settings:normal;text-indent:0;text-align:start;text-decoration:none;text-decoration-line:none;text-decoration-style:solid;text-decoration-color:#000000;letter-spacing:normal;word-spacing:normal;text-transform:none;writing-mode:lr-tb;direction:ltr;text-orientation:mixed;dominant-baseline:auto;baseline-shift:baseline;text-anchor:start;white-space:normal;shape-padding:0;shape-margin:0;inline-size:0;clip-rule:nonzero;display:inline;overflow:visible;visibility:visible;opacity:1;isolation:auto;mix-blend-mode:normal;color-interpolation:sRGB;color-interpolation-filters:linearRGB;solid-color:#000000;solid-opacity:1;vector-effect:none;fill:url(#linearGradient418);fill-opacity:1;fill-rule:nonzero;stroke:none;stroke-width:4.49561;stroke-linecap:round;stroke-linejoin:round;stroke-miterlimit:4;stroke-dasharray:none;stroke-dashoffset:0;stroke-opacity:1;color-rendering:auto;image-rendering:auto;shape-rendering:auto;text-rendering:auto;enable-background:accumulate;stop-color:#000000"
       d="M 124.11523 99.857422 C 96.832334 99.857422 74.867188 121.51035 74.867188 148.40625 L 74.867188 197.38477 L 190.30859 197.38477 L 190.30859 99.857422 L 124.11523 99.857422 z M 410.91211 99.857422 L 410.91211 197.38477 L 526.35352 197.38477 L 526.35352 148.40625 C 526.35352 121.51035 504.38652 99.857422 477.10352 99.857422 L 410.91211 99.857422 z M 200.29297 100.01562 L 200.29297 197.54297 C 226.61317 197.54297 247.94962 218.2027 247.94922 243.6875 L 353.58398 243.68555 A 47.341801 46.1437 0 0 1 395.98633 197.79492 C 396.06633 197.78692 396.14656 197.78148 396.22656 197.77148 A 47.341801 46.1437 0 0 1 398.39453 197.61133 C 398.44863 197.61133 398.50264 197.59961 398.55664 197.59961 A 47.341801 46.1437 0 0 1 400.92578 197.54297 L 400.92578 100.01562 L 200.29297 100.01562 z M 74.867188 207.21289 L 74.867188 301.57422 L 237.90625 301.57422 L 237.90625 245.90625 C 237.90625 246.41245 237.83724 246.8332 237.71484 247.1875 A 37.454067 36.315445 0 0 0 237.90625 243.5293 A 37.454067 36.315445 0 0 0 200.45117 207.21289 A 37.454067 36.315445 0 0 0 196.13086 207.45703 C 196.53046 207.30323 197.018 207.21289 197.625 207.21289 L 74.867188 207.21289 z M 400.50195 207.21289 A 37.454067 36.315445 0 0 0 363.28516 243.5293 A 37.454067 36.315445 0 0 0 363.47656 247.1875 C 363.35416 246.8332 363.28516 246.41245 363.28516 245.90625 L 363.28516 301.57422 L 526.32422 301.57422 L 526.32422 207.21289 L 403.56641 207.21289 C 404.17331 207.21289 404.66105 207.30323 405.06055 207.45703 A 37.454067 36.315445 0 0 0 400.74023 207.21289 A 37.454067 36.315445 0 0 0 400.50195 207.21289 z M 247.79297 253.67188 L 247.79297 359.30664 L 353.42773 359.30664 L 353.42773 253.67188 L 247.79297 253.67188 z M 74.896484 311.40234 L 74.896484 405.76367 L 197.6543 405.76367 C 197.0473 405.76367 196.55976 405.67333 196.16016 405.51953 A 37.454067 36.315445 0 0 0 200.48047 405.76367 A 37.454067 36.315445 0 0 0 237.93555 369.44727 A 37.454067 36.315445 0 0 0 237.74414 365.78906 C 237.86654 366.14336 237.93555 366.56411 237.93555 367.07031 L 237.93555 311.40234 L 74.896484 311.40234 z M 363.31445 311.40234 L 363.31445 367.07031 C 363.31445 366.56412 363.38319 366.14339 363.50586 365.78906 A 37.454067 36.315445 0 0 0 363.31445 369.44727 A 37.454067 36.315445 0 0 0 400.76953 405.76367 A 37.454067 36.315445 0 0 0 405.08984 405.51953 C 404.69026 405.67338 404.20264 405.76367 403.5957 405.76367 L 526.35352 405.76367 L 526.35352 311.40234 L 363.31445 311.40234 z M 247.79297 369.44727 C 247.79344 394.93206 226.45687 415.5918 200.13672 415.5918 L 200.13672 513.11914 L 400.76953 513.11914 L 400.76953 415.5918 A 47.341801 46.1437 0 0 1 398.40039 415.5332 C 398.34618 415.53059 398.2924 415.52623 398.23828 415.52344 A 47.341801 46.1437 0 0 1 396.07031 415.36328 C 395.99008 415.35541 395.9101 415.34616 395.83008 415.33789 A 47.341801 46.1437 0 0 1 353.42773 369.44727 L 247.79297 369.44727 z M 74.867188 415.5918 L 74.867188 464.57031 C 74.867188 491.46621 96.832334 513.11914 124.11523 513.11914 L 190.30859 513.11914 L 190.30859 415.5918 L 74.867188 415.5918 z M 410.91211 415.5918 L 410.91211 513.11914 L 477.10352 513.11914 C 504.38652 513.11914 526.35352 491.46621 526.35352 464.57031 L 526.35352 415.5918 L 410.91211 415.5918 z "
       transform="translate(1354.3718,820.12734)" />
  </g>
</svg>
