<?xml version="1.0" encoding="UTF-8" standalone="no"?>
<svg
   xmlns:dc="http://purl.org/dc/elements/1.1/"
   xmlns:cc="http://creativecommons.org/ns#"
   xmlns:rdf="http://www.w3.org/1999/02/22-rdf-syntax-ns#"
   xmlns:svg="http://www.w3.org/2000/svg"
   xmlns="http://www.w3.org/2000/svg"
   xmlns:xlink="http://www.w3.org/1999/xlink"
   xmlns:sodipodi="http://sodipodi.sourceforge.net/DTD/sodipodi-0.dtd"
   xmlns:inkscape="http://www.inkscape.org/namespaces/inkscape"
   version="1.1"
   id="svg62"
   width="613.76288"
   height="613.76288"
   viewBox="0 0 613.7629 613.76289"
   sodipodi:docname="logo3.svg"
   inkscape:version="1.0.2 (e86c870879, 2021-01-15)"
   inkscape:export-filename="/home/arnoldobr/public_html/git/sim_server/sim_server_v2/favicon/logo2.png"
   inkscape:export-xdpi="319.35031"
   inkscape:export-ydpi="319.35031">
  <metadata
     id="metadata68">
    <rdf:RDF>
      <cc:Work
         rdf:about="">
        <dc:format>image/svg+xml</dc:format>
        <dc:type
           rdf:resource="http://purl.org/dc/dcmitype/StillImage" />
        <dc:title />
      </cc:Work>
    </rdf:RDF>
  </metadata>
  <defs
     id="defs66">
    <linearGradient
       inkscape:collect="always"
       id="linearGradient355">
      <stop
         style="stop-color:#b3967c;stop-opacity:1"
         offset="0"
         id="stop351" />
      <stop
         style="stop-color:#d5c79f;stop-opacity:1"
         offset="1"
         id="stop353" />
    </linearGradient>
    <linearGradient
       inkscape:collect="always"
       id="linearGradient416">
      <stop
         style="stop-color:#b3957b;stop-opacity:1"
         offset="0"
         id="stop412" />
      <stop
         style="stop-color:#d5c79f;stop-opacity:1"
         offset="1"
         id="stop414" />
    </linearGradient>
    <linearGradient
       inkscape:collect="always"
       xlink:href="#linearGradient416"
       id="linearGradient418"
       x1="310.17365"
       y1="513.11914"
       x2="308.72382"
       y2="120.97537"
       gradientUnits="userSpaceOnUse"
       gradientTransform="matrix(1.2760902,0,0,1.2760902,1271.3767,705.24014)" />
    <linearGradient
       inkscape:collect="always"
       xlink:href="#linearGradient355"
       id="linearGradient357"
       x1="178.86719"
       y1="582.4082"
       x2="178.86719"
       y2="18.8125"
       gradientUnits="userSpaceOnUse" />
  </defs>
  <sodipodi:namedview
     pagecolor="#ffffff"
     bordercolor="#666666"
     borderopacity="1"
     objecttolerance="10"
     gridtolerance="10"
     guidetolerance="10"
     inkscape:pageopacity="0"
     inkscape:pageshadow="2"
     inkscape:window-width="640"
     inkscape:window-height="480"
     id="namedview64"
     showgrid="false"
     showguides="true"
     inkscape:guide-bbox="true"
     inkscape:snap-intersection-paths="true"
     inkscape:snap-bbox="true"
     inkscape:snap-bbox-midpoints="true"
     inkscape:bbox-paths="true"
     inkscape:object-nodes="true"
     inkscape:bbox-nodes="true"
     inkscape:object-paths="true"
     inkscape:zoom="1.1144369"
     inkscape:cx="306.88145"
     inkscape:cy="306.88145"
     inkscape:current-layer="g70"
     inkscape:document-rotation="0"
     inkscape:snap-bbox-edge-midpoints="true"
     inkscape:snap-to-guides="true"
     inkscape:snap-grids="true" />
  <g
     inkscape:groupmode="layer"
     inkscape:label="Image"
     id="g70"
     transform="translate(-1348.1007,-789.46571)">
    <path
       id="rect1162"
       style="opacity:1;fill:#000000;fill-opacity:1;stroke:none;stroke-width:26.1351;stroke-linecap:round;stroke-linejoin:round;stroke-miterlimit:4;stroke-dasharray:none"
       d="m 1421.4812,789.46571 c -40.6532,0 -73.3805,32.72717 -73.3805,73.38039 v 467.0022 c 0,40.6532 32.7273,73.3803 73.3805,73.3803 h 467.002 c 40.6533,0 73.3804,-32.7271 73.3804,-73.3803 V 862.8461 c 0,-40.65322 -32.7271,-73.38039 -73.3804,-73.38039 z"
       sodipodi:nodetypes="sccssccss" />
    <path
       id="path89"
       style="color:#000000;font-style:normal;font-variant:normal;font-weight:normal;font-stretch:normal;font-size:medium;line-height:normal;font-family:sans-serif;font-variant-ligatures:normal;font-variant-position:normal;font-variant-caps:normal;font-variant-numeric:normal;font-variant-alternates:normal;font-variant-east-asian:normal;font-feature-settings:normal;font-variation-settings:normal;text-indent:0;text-align:start;text-decoration:none;text-decoration-line:none;text-decoration-style:solid;text-decoration-color:#000000;letter-spacing:normal;word-spacing:normal;text-transform:none;writing-mode:lr-tb;direction:ltr;text-orientation:mixed;dominant-baseline:auto;baseline-shift:baseline;text-anchor:start;white-space:normal;shape-padding:0;shape-margin:0;inline-size:0;clip-rule:nonzero;display:inline;overflow:visible;visibility:visible;isolation:auto;mix-blend-mode:normal;color-interpolation:sRGB;color-interpolation-filters:linearRGB;solid-color:#000000;solid-opacity:1;vector-effect:none;fill:url(#linearGradient357);fill-opacity:1;fill-rule:nonzero;stroke:none;stroke-width:5.20462;stroke-linecap:round;stroke-linejoin:round;stroke-miterlimit:4;stroke-dasharray:none;stroke-dashoffset:0;stroke-opacity:1;color-rendering:auto;image-rendering:auto;shape-rendering:auto;text-rendering:auto;enable-background:accumulate;stop-color:#000000"
       d="m 178.86719,18.8125 v 136.29883 a 60.540039,59.087097 0 0 1 60.54101,59.08789 h 122.33203 a 60.611809,59.087097 0 0 1 60.61133,-59.08789 V 18.8125 Z m 268.76953,0 V 155.11133 H 582.4082 V 75.544922 c 0,-31.42932 -25.64479,-56.732422 -57.49609,-56.732422 z m -371.326173,0.002 c -31.8513,0 -57.498047,25.301159 -57.498047,56.730469 V 155.11328 H 153.58398 V 18.814453 Z M 18.8125,180.19727 v 107.87109 h 195.51172 v -63.63867 c 0,0.5788 -0.0837,1.05974 -0.23047,1.46484 0.1526,-1.3896 0.23007,-2.78494 0.23047,-4.18164 0.001,-22.82608 -19.93471,-41.37097 -44.62891,-41.51562 -0.0953,-2.8e-4 -0.19211,-2.8e-4 -0.28711,0 -1.7314,6.7e-4 -3.46008,0.094 -5.17968,0.27929 0.4791,-0.17587 1.06331,-0.27929 1.79101,-0.27929 z m 412.71484,0 c -24.6942,0.14465 -44.6301,18.68954 -44.6289,41.51562 4e-4,1.3967 0.0759,2.79204 0.22851,4.18164 -0.1468,-0.4051 -0.22851,-0.88604 -0.22851,-1.46484 v 63.63867 H 582.4082 V 180.19727 H 435.20117 c 0.7277,0 1.31387,0.10342 1.79297,0.27929 -1.7196,-0.18525 -3.45024,-0.27862 -5.18164,-0.27929 -0.095,-2.8e-4 -0.18986,-2.8e-4 -0.28516,0 z M 239.4082,239.48242 V 361.74023 H 361.74023 V 239.48242 Z M 18.814453,313.15234 v 107.8711 H 166.01953 c -0.7277,0 -1.31191,-0.1034 -1.79101,-0.2793 1.7196,0.1853 3.45024,0.2786 5.18164,0.2793 0.095,3e-4 0.18985,3e-4 0.28515,0 24.6942,-0.1446 44.63011,-18.68963 44.62891,-41.51563 -4e-4,-1.3967 -0.0779,-2.79399 -0.23047,-4.18359 0.1468,0.4051 0.23047,0.88604 0.23047,1.46484 v -63.63672 z m 368.083987,0 v 63.63672 c 0,-0.5788 0.0837,-1.05974 0.23047,-1.46484 -0.1526,1.3896 -0.23007,2.78689 -0.23047,4.18359 -10e-4,22.826 19.9347,41.37103 44.6289,41.51563 0.0953,3e-4 0.19016,3e-4 0.28516,0 1.7314,-7e-4 3.46204,-0.094 5.18164,-0.2793 -0.4791,0.1759 -1.06332,0.2793 -1.79102,0.2793 H 582.4082 V 313.15234 Z M 239.4082,387.02148 a 60.540039,59.087097 0 0 1 -60.54101,59.0879 V 582.4082 H 422.35156 V 446.10938 a 60.611809,59.087097 0 0 1 -60.61133,-59.0879 z M 18.814453,446.10742 v 79.56641 c 0,31.4293 25.644794,56.73242 57.496094,56.73242 H 153.58594 V 446.10742 Z m 428.824217,0 v 136.29883 h 77.27344 c 31.8513,0 57.49609,-25.30312 57.49609,-56.73242 v -79.56641 z"
       transform="translate(1354.3718,795.73683)" />
  </g>
</svg>
