<?xml version="1.0" standalone="no"?>
<!DOCTYPE svg PUBLIC "-//W3C//DTD SVG 20010904//EN"
 "http://www.w3.org/TR/2001/REC-SVG-20010904/DTD/svg10.dtd">
<svg version="1.0" xmlns="http://www.w3.org/2000/svg"
 width="700.000000pt" height="700.000000pt" viewBox="0 0 700.000000 700.000000"
 preserveAspectRatio="xMidYMid meet">
<metadata>
Created by potrace 1.14, written by Peter Selinger 2001-2017
</metadata>
<g transform="translate(0.000000,700.000000) scale(0.100000,-0.100000)"
fill="#000000" stroke="none">
<path d="M685 6985 c-199 -37 -378 -145 -505 -303 -57 -72 -129 -216 -157
-312 -17 -62 -18 -182 -21 -2825 -2 -2065 0 -2779 9 -2835 56 -363 344 -648
705 -700 57 -8 839 -10 2834 -8 2653 3 2757 4 2820 22 332 95 567 356 620 686
6 43 10 977 10 2795 -1 2261 -3 2743 -14 2805 -37 202 -145 382 -304 510 -72
57 -216 129 -312 157 -62 17 -181 18 -2840 20 -2251 1 -2788 -1 -2845 -12z
m1135 -1050 l0 -775 -765 0 -766 0 3 523 c4 583 0 548 80 700 45 85 164 202
255 250 141 74 157 76 706 76 l487 1 0 -775z m3070 1 l0 -773 -70 -7 c-159
-14 -310 -86 -425 -201 -114 -115 -182 -253 -192 -392 l-6 -73 -698 0 -699 0
0 43 c-1 157 -107 361 -248 472 -108 87 -288 155 -407 155 l-35 0 0 775 0 775
1390 0 1390 0 0 -774z m1334 754 c214 -54 375 -204 459 -427 21 -56 22 -72 25
-580 l3 -523 -766 0 -765 0 0 775 0 775 483 0 c449 0 489 -1 561 -20z m-4039
-1849 c133 -53 233 -143 288 -259 l32 -67 3 -432 3 -433 -1111 0 -1110 0 0
610 0 611 918 -3 917 -3 60 -24z m4525 -581 l0 -610 -1110 0 -1111 0 3 433 3
432 32 67 c37 78 106 157 178 203 49 32 146 71 195 78 14 2 427 5 918 6 l892
1 0 -610z m-2515 -70 c3 -5 2 -317 -1 -695 l-7 -685 -694 0 -693 0 0 688 c0
379 3 692 7 695 10 11 1381 8 1388 -3z m-1685 -1249 c0 -447 -3 -470 -63 -573
-36 -61 -123 -141 -195 -177 -123 -62 -100 -61 -1074 -61 l-888 0 0 610 0 610
1110 0 1110 0 0 -409z m4200 -201 l0 -610 -887 0 c-975 0 -952 -1 -1075 61
-72 36 -159 116 -195 177 -60 103 -63 126 -63 573 l0 409 1110 0 1110 0 0
-610z m-2508 -302 c17 -175 119 -352 266 -460 106 -78 268 -137 380 -138 l42
0 0 -775 0 -775 -1390 0 -1390 0 0 774 0 773 69 6 c319 27 594 293 618 600 l6
67 696 -2 696 -3 7 -67z m-2382 -1374 l0 -775 -502 3 -503 3 -80 28 c-201 71
-340 209 -413 409 l-27 73 -3 518 -3 517 766 0 765 0 0 -776z m4888 259 c-3
-503 -4 -520 -25 -583 -67 -197 -216 -345 -418 -417 l-80 -28 -502 -3 -503 -3
0 775 0 776 765 0 766 0 -3 -517z"/>
</g>
</svg>
