<?xml version="1.0" encoding="UTF-8" standalone="no"?>
<svg
   xmlns:dc="http://purl.org/dc/elements/1.1/"
   xmlns:cc="http://creativecommons.org/ns#"
   xmlns:rdf="http://www.w3.org/1999/02/22-rdf-syntax-ns#"
   xmlns:svg="http://www.w3.org/2000/svg"
   xmlns="http://www.w3.org/2000/svg"
   xmlns:sodipodi="http://sodipodi.sourceforge.net/DTD/sodipodi-0.dtd"
   xmlns:inkscape="http://www.inkscape.org/namespaces/inkscape"
   version="1.0"
   width="801.000000pt"
   height="801.000000pt"
   viewBox="0 0 801.000000 801.000000"
   preserveAspectRatio="xMidYMid meet"
   id="svg130"
   sodipodi:docname="safari-pinned-tab.svg"
   inkscape:version="1.0.2 (e86c870879, 2021-01-15)">
  <defs
     id="defs134" />
  <sodipodi:namedview
     pagecolor="#ffffff"
     bordercolor="#666666"
     borderopacity="1"
     objecttolerance="10"
     gridtolerance="10"
     guidetolerance="10"
     inkscape:pageopacity="0"
     inkscape:pageshadow="2"
     inkscape:window-width="640"
     inkscape:window-height="480"
     id="namedview132"
     showgrid="false"
     showguides="true"
     inkscape:guide-bbox="true"
     inkscape:snap-bbox="true"
     inkscape:bbox-paths="true"
     inkscape:bbox-nodes="true"
     inkscape:snap-bbox-edge-midpoints="true"
     inkscape:snap-bbox-midpoints="true"
     inkscape:zoom="0.36563101"
     inkscape:cx="573.09118"
     inkscape:cy="575.99932"
     inkscape:current-layer="svg130">
    <sodipodi:guide
       position="24.75,645.4583"
       orientation="-1,0"
       id="guide224"
       inkscape:label=""
       inkscape:locked="false"
       inkscape:color="rgb(0,0,255)" />
    <sodipodi:guide
       position="776.3,202.66091"
       orientation="1,0"
       id="guide226" />
    <sodipodi:guide
       position="0,801"
       orientation="0,1068"
       id="guide228" />
    <sodipodi:guide
       position="801,801"
       orientation="1068,0"
       id="guide230" />
    <sodipodi:guide
       position="801,0"
       orientation="0,-1068"
       id="guide232" />
    <sodipodi:guide
       position="0,0"
       orientation="-1068,0"
       id="guide234" />
  </sodipodi:namedview>
  <metadata
     id="metadata2">
Created by potrace 1.14, written by Peter Selinger 2001-2017
<rdf:RDF>
  <cc:Work
     rdf:about="">
    <dc:format>image/svg+xml</dc:format>
    <dc:type
       rdf:resource="http://purl.org/dc/dcmitype/StillImage" />
  </cc:Work>
</rdf:RDF>
</metadata>
  <path
     id="rect92"
     style="fill:#000000;fill-opacity:1;stroke-width:1.75006;stroke-linecap:round;stroke-linejoin:round"
     d="M 87.537082,24.725043 C 52.738966,24.725043 24.725,52.738925 24.725,87.53713 V 713.4629 c 0,34.79811 28.013966,62.81206 62.812082,62.81206 H 713.46293 c 34.79811,0 62.81207,-28.01395 62.81207,-62.81206 V 87.53713 c 0,-34.798205 -28.01396,-62.812087 -62.81207,-62.812087 z"
     sodipodi:nodetypes="cssccsscc" />
  <rect
     style="opacity:0.81;fill:#100f01;fill-opacity:1;stroke:none;stroke-width:25.0783;stroke-linecap:round;stroke-linejoin:round;stroke-miterlimit:4;stroke-dasharray:none"
     id="rect1162"
     width="588.94739"
     height="541.16235"
     x="106.02631"
     y="129.91882"
     ry="70.414299" />
  <path
     id="path36-3"
     style="color:#000000;font-style:normal;font-variant:normal;font-weight:normal;font-stretch:normal;font-size:medium;line-height:normal;font-family:sans-serif;font-variant-ligatures:normal;font-variant-position:normal;font-variant-caps:normal;font-variant-numeric:normal;font-variant-alternates:normal;font-variant-east-asian:normal;font-feature-settings:normal;font-variation-settings:normal;text-indent:0;text-align:start;text-decoration:none;text-decoration-line:none;text-decoration-style:solid;text-decoration-color:#000000;letter-spacing:normal;word-spacing:normal;text-transform:none;writing-mode:lr-tb;direction:ltr;text-orientation:mixed;dominant-baseline:auto;baseline-shift:baseline;text-anchor:start;white-space:normal;shape-padding:0;shape-margin:0;inline-size:0;clip-rule:nonzero;display:inline;overflow:visible;visibility:visible;isolation:auto;mix-blend-mode:normal;color-interpolation:sRGB;color-interpolation-filters:linearRGB;solid-color:#000000;solid-opacity:1;vector-effect:none;fill:#e9e9f2;fill-opacity:1;fill-rule:nonzero;stroke:none;stroke-width:5.6197;stroke-linecap:round;stroke-linejoin:round;stroke-miterlimit:4;stroke-dasharray:none;stroke-dashoffset:0;stroke-opacity:1;color-rendering:auto;image-rendering:auto;shape-rendering:auto;text-rendering:auto;enable-background:accumulate;stop-color:#000000"
     d="m 179.87402,142.20313 c -34.10472,0 -61.56204,27.06703 -61.56204,60.68799 v 61.22511 h 144.30638 v -121.9131 z m 358.5076,0 v 121.9131 h 144.30639 v -61.22511 c 0,-33.62096 -27.45963,-60.68799 -61.56447,-60.68799 z m -263.28237,0.19775 v 121.91311 c 32.90131,0 59.57271,25.82548 59.57223,57.6825 l 132.04769,-10e-4 a 59.17915,57.681476 0 0 1 53.00463,-57.36512 c 0.1,-0.0102 0.20029,-0.0167 0.30029,-0.0291 a 59.17915,57.681476 0 0 1 2.71005,-0.20019 c 0.0676,0 0.13518,-0.015 0.20264,-0.015 a 59.17915,57.681476 0 0 1 2.96153,-0.0707 V 142.40149 Z M 118.31198,276.40179 v 117.95542 h 203.80538 v -69.58718 c 0,0.63277 -0.0861,1.15873 -0.23928,1.60161 a 46.819086,45.395763 0 0 0 0.23928,-4.5729 46.819086,45.395763 0 0 0 -46.82035,-45.39695 46.819086,45.395763 0 0 0 -5.40058,0.30517 c 0.49953,-0.19226 1.10897,-0.30517 1.86775,-0.30517 z m 407.05652,0 a 46.819086,45.395763 0 0 0 -46.52248,45.39694 46.819086,45.395763 0 0 0 0.23925,4.5729 c -0.15299,-0.44287 -0.23925,-0.96884 -0.23925,-1.6016 v 69.58718 H 682.65139 V 276.40178 H 529.19921 c 0.75864,0 1.36834,0.11286 1.86771,0.30517 a 46.819086,45.395763 0 0 0 -5.40057,-0.30517 46.819086,45.395763 0 0 0 -0.29785,1e-5 z m -190.89234,58.0756 V 466.52505 H 466.52384 V 334.47739 Z m -216.12755,72.16536 v 117.95546 h 153.4522 c -0.75877,0 -1.36822,-0.11286 -1.86775,-0.30517 a 46.819086,45.395763 0 0 0 5.40056,0.30517 46.819086,45.395763 0 0 0 46.82035,-45.39697 46.819086,45.395763 0 0 0 -0.23925,-4.57288 c 0.153,0.44287 0.23925,0.96883 0.23925,1.6016 v -69.58721 z m 360.53403,0 v 69.58721 c 0,-0.63275 0.0858,-1.15868 0.23926,-1.60162 a 46.819086,45.395763 0 0 0 -0.23926,4.5729 46.819086,45.395763 0 0 0 46.82035,45.39697 46.819086,45.395763 0 0 0 5.40056,-0.30517 c -0.49949,0.19231 -1.10904,0.30517 -1.86773,0.30517 H 682.68801 V 406.64275 Z m -144.40648,72.55849 c 5.7e-4,31.85702 -26.67099,57.68254 -59.57223,57.68254 V 658.79686 H 525.70299 V 536.88378 a 59.17915,57.681476 0 0 1 -2.96153,-0.0732 c -0.0677,-0.003 -0.135,-0.008 -0.20264,-0.0134 a 59.17915,57.681476 0 0 1 -2.71005,-0.20023 c -0.10017,-0.0102 -0.20027,-0.0213 -0.3003,-0.0316 a 59.17915,57.681476 0 0 1 -53.00463,-57.3648 z m -216.16418,57.68254 v 61.22508 c 0,33.62097 27.45732,60.68798 61.56204,60.68798 h 82.74434 V 536.88378 Z m 420.06964,0 v 121.91308 h 82.74192 c 34.10484,0 61.56447,-27.06703 61.56447,-60.688 v -61.22509 z" />
</svg>
