<?xml version="1.0" encoding="UTF-8" standalone="no"?>
<svg
   xmlns:dc="http://purl.org/dc/elements/1.1/"
   xmlns:cc="http://creativecommons.org/ns#"
   xmlns:rdf="http://www.w3.org/1999/02/22-rdf-syntax-ns#"
   xmlns:svg="http://www.w3.org/2000/svg"
   xmlns="http://www.w3.org/2000/svg"
   xmlns:xlink="http://www.w3.org/1999/xlink"
   xmlns:sodipodi="http://sodipodi.sourceforge.net/DTD/sodipodi-0.dtd"
   xmlns:inkscape="http://www.inkscape.org/namespaces/inkscape"
   version="1.1"
   id="svg62"
   width="944.37109"
   height="578.5332"
   viewBox="0 0 944.37112 578.53321"
   sodipodi:docname="logo.svg"
   inkscape:version="1.0.2 (e86c870879, 2021-01-15)">
  <metadata
     id="metadata68">
    <rdf:RDF>
      <cc:Work
         rdf:about="">
        <dc:format>image/svg+xml</dc:format>
        <dc:type
           rdf:resource="http://purl.org/dc/dcmitype/StillImage" />
        <dc:title />
      </cc:Work>
    </rdf:RDF>
  </metadata>
  <defs
     id="defs66">
    <linearGradient
       inkscape:collect="always"
       id="linearGradient1171">
      <stop
         style="stop-color:#d1b194;stop-opacity:1"
         offset="0"
         id="stop1167" />
      <stop
         style="stop-color:#fff4c5;stop-opacity:1"
         offset="1"
         id="stop1169" />
    </linearGradient>
    <linearGradient
       inkscape:collect="always"
       xlink:href="#linearGradient1171"
       id="linearGradient1175"
       x1="1034.176"
       y1="622.14386"
       x2="1034.176"
       y2="205.89209"
       gradientUnits="userSpaceOnUse" />
    <linearGradient
       inkscape:collect="always"
       xlink:href="#linearGradient1171"
       id="linearGradient1190"
       gradientUnits="userSpaceOnUse"
       x1="1034.176"
       y1="622.14386"
       x2="1034.176"
       y2="205.89209" />
  </defs>
  <sodipodi:namedview
     pagecolor="#ffffff"
     bordercolor="#666666"
     borderopacity="1"
     objecttolerance="10"
     gridtolerance="10"
     guidetolerance="10"
     inkscape:pageopacity="0"
     inkscape:pageshadow="2"
     inkscape:window-width="640"
     inkscape:window-height="480"
     id="namedview64"
     showgrid="false"
     showguides="true"
     inkscape:guide-bbox="true"
     inkscape:snap-intersection-paths="false"
     inkscape:snap-bbox="true"
     inkscape:snap-bbox-midpoints="false"
     inkscape:bbox-paths="true"
     inkscape:object-nodes="false"
     inkscape:bbox-nodes="true"
     inkscape:object-paths="true"
     inkscape:zoom="0.54748194"
     inkscape:cx="438.2012"
     inkscape:cy="164.1568"
     inkscape:current-layer="g70"
     inkscape:document-rotation="0" />
  <g
     inkscape:groupmode="layer"
     inkscape:label="Image"
     id="g70"
     transform="translate(-1354.3718,-831.47109)">
    <g
       id="g1188"
       transform="translate(618.79926,659.30746)">
      <rect
         style="opacity:0.81;fill:#100f01;fill-opacity:1;stroke:none;stroke-width:19.8435;stroke-linecap:round;stroke-linejoin:round;stroke-miterlimit:4;stroke-dasharray:none"
         id="rect1184"
         width="466.22852"
         height="428.00195"
         x="745.78534"
         y="199.37695"
         ry="55.690235" />
      <path
         id="path1186"
         style="color:#000000;font-style:normal;font-variant:normal;font-weight:normal;font-stretch:normal;font-size:medium;line-height:normal;font-family:sans-serif;font-variant-ligatures:normal;font-variant-position:normal;font-variant-caps:normal;font-variant-numeric:normal;font-variant-alternates:normal;font-variant-east-asian:normal;font-feature-settings:normal;font-variation-settings:normal;text-indent:0;text-align:start;text-decoration:none;text-decoration-line:none;text-decoration-style:solid;text-decoration-color:#000000;letter-spacing:normal;word-spacing:normal;text-transform:none;writing-mode:lr-tb;direction:ltr;text-orientation:mixed;dominant-baseline:auto;baseline-shift:baseline;text-anchor:start;white-space:normal;shape-padding:0;shape-margin:0;inline-size:0;clip-rule:nonzero;display:inline;overflow:visible;visibility:visible;opacity:0.81;isolation:auto;mix-blend-mode:normal;color-interpolation:sRGB;color-interpolation-filters:linearRGB;solid-color:#000000;solid-opacity:1;vector-effect:none;fill:url(#linearGradient1190);fill-opacity:1;fill-rule:nonzero;stroke:none;stroke-width:4.70453;stroke-linecap:round;stroke-linejoin:round;stroke-miterlimit:4;stroke-dasharray:none;stroke-dashoffset:0;stroke-opacity:1;color-rendering:auto;image-rendering:auto;shape-rendering:auto;text-rendering:auto;enable-background:accumulate;stop-color:#000000"
         d="m 802.04492,204.29102 c -28.44437,0 -51.3457,22.74358 -51.3457,50.99414 v 51.44531 H 871.05469 V 204.29102 Z m 73.92383,0 v 102.43945 h 4.93164 c 23.66926,0 42.72461,19.05338 42.72461,42.72265 v 3.73633 h 110.5508 v -2.72851 c 0,-24.22744 19.3267,-43.73047 43.332,-43.73047 h 4.3223 V 204.29102 Z m 210.77535,0 v 102.43945 h 120.3555 v -51.44531 c 0,-28.25055 -22.9013,-50.99414 -51.3457,-50.99414 z M 750.69922,311.64453 v 99.27539 h 168.01172 v -58.56836 c 0,-22.55291 -18.51312,-40.70703 -41.50977,-40.70703 z m 329.89848,0 c -22.9967,0 -41.5098,18.15412 -41.5098,40.70703 v 58.56836 h 168.0117 V 311.64453 Z M 923.625,358.10156 v 110.55078 h 110.5508 V 358.10156 Z m -172.92578,57.73242 v 99.2754 h 126.50195 c 22.99665,0 41.50977,-18.15414 41.50977,-40.70704 v -58.56836 z m 288.38868,0 v 58.56836 c 0,22.5529 18.5131,40.70704 41.5098,40.70704 h 126.5019 v -99.2754 z M 923.625,473.56641 v 3.73437 c 0,23.66925 -19.05535,42.72266 -42.72461,42.72266 h -4.93164 v 102.4414 h 205.86135 v -102.4414 h -4.9297 c -23.669,0 -42.7246,-19.05341 -42.7246,-42.72266 v -3.73437 z m -172.92578,46.45703 v 51.44726 c 0,28.25109 22.90133,50.99414 51.3457,50.99414 h 69.00977 v -102.4414 z m 336.04488,0 v 102.4414 h 69.0098 c 28.4444,0 51.3457,-22.74306 51.3457,-50.99414 v -51.44726 z" />
    </g>
    <g
       id="g1180"
       transform="translate(676.0823,713.23809)">
      <path
         id="rect92"
         style="fill:#a51d1e;fill-opacity:1;stroke-width:1.4;stroke-linecap:round;stroke-linejoin:round"
         d="m 728.53752,118.233 c -27.83765,0 -50.24804,22.41039 -50.24804,50.24805 v 478.03711 c 0,27.83765 22.41039,50.24804 50.24804,50.24804 H 1510.7113 L 1622.6606,584.81503 V 168.48105 c 0,-27.83766 -22.4104,-50.24805 -50.2481,-50.24805 z" />
      <rect
         style="opacity:0.81;fill:#100f01;fill-opacity:1;stroke:none;stroke-width:19.8435;stroke-linecap:round;stroke-linejoin:round;stroke-miterlimit:4;stroke-dasharray:none"
         id="rect1162"
         width="466.22852"
         height="428.00195"
         x="745.78534"
         y="199.37695"
         ry="55.690235" />
      <path
         id="path1068"
         style="color:#000000;font-style:normal;font-variant:normal;font-weight:normal;font-stretch:normal;font-size:medium;line-height:normal;font-family:sans-serif;font-variant-ligatures:normal;font-variant-position:normal;font-variant-caps:normal;font-variant-numeric:normal;font-variant-alternates:normal;font-variant-east-asian:normal;font-feature-settings:normal;font-variation-settings:normal;text-indent:0;text-align:start;text-decoration:none;text-decoration-line:none;text-decoration-style:solid;text-decoration-color:#000000;letter-spacing:normal;word-spacing:normal;text-transform:none;writing-mode:lr-tb;direction:ltr;text-orientation:mixed;dominant-baseline:auto;baseline-shift:baseline;text-anchor:start;white-space:normal;shape-padding:0;shape-margin:0;inline-size:0;clip-rule:nonzero;display:inline;overflow:visible;visibility:visible;opacity:0.81;isolation:auto;mix-blend-mode:normal;color-interpolation:sRGB;color-interpolation-filters:linearRGB;solid-color:#000000;solid-opacity:1;vector-effect:none;fill:url(#linearGradient1175);fill-opacity:1;fill-rule:nonzero;stroke:none;stroke-width:4.70453;stroke-linecap:round;stroke-linejoin:round;stroke-miterlimit:4;stroke-dasharray:none;stroke-dashoffset:0;stroke-opacity:1;color-rendering:auto;image-rendering:auto;shape-rendering:auto;text-rendering:auto;enable-background:accumulate;stop-color:#000000"
         d="m 802.04492,204.29102 c -28.44437,0 -51.3457,22.74358 -51.3457,50.99414 v 51.44531 H 871.05469 V 204.29102 Z m 73.92383,0 v 102.43945 h 4.93164 c 23.66926,0 42.72461,19.05338 42.72461,42.72265 v 3.73633 h 110.5508 v -2.72851 c 0,-24.22744 19.3267,-43.73047 43.332,-43.73047 h 4.3223 V 204.29102 Z m 210.77535,0 v 102.43945 h 120.3555 v -51.44531 c 0,-28.25055 -22.9013,-50.99414 -51.3457,-50.99414 z M 750.69922,311.64453 v 99.27539 h 168.01172 v -58.56836 c 0,-22.55291 -18.51312,-40.70703 -41.50977,-40.70703 z m 329.89848,0 c -22.9967,0 -41.5098,18.15412 -41.5098,40.70703 v 58.56836 h 168.0117 V 311.64453 Z M 923.625,358.10156 v 110.55078 h 110.5508 V 358.10156 Z m -172.92578,57.73242 v 99.2754 h 126.50195 c 22.99665,0 41.50977,-18.15414 41.50977,-40.70704 v -58.56836 z m 288.38868,0 v 58.56836 c 0,22.5529 18.5131,40.70704 41.5098,40.70704 h 126.5019 v -99.2754 z M 923.625,473.56641 v 3.73437 c 0,23.66925 -19.05535,42.72266 -42.72461,42.72266 h -4.93164 v 102.4414 h 205.86135 v -102.4414 h -4.9297 c -23.669,0 -42.7246,-19.05341 -42.7246,-42.72266 v -3.73437 z m -172.92578,46.45703 v 51.44726 c 0,28.25109 22.90133,50.99414 51.3457,50.99414 h 69.00977 v -102.4414 z m 336.04488,0 v 102.4414 h 69.0098 c 28.4444,0 51.3457,-22.74306 51.3457,-50.99414 v -51.44726 z" />
    </g>
    <text
       xml:space="preserve"
       style="font-style:normal;font-variant:normal;font-weight:800;font-stretch:normal;font-size:265.482px;line-height:1.25;font-family:'Input Sans';-inkscape-font-specification:'Input Sans, Ultra-Bold';font-variant-ligatures:normal;font-variant-caps:normal;font-variant-numeric:normal;font-variant-east-asian:normal;text-align:center;text-anchor:middle;fill:#f5e7e7;fill-opacity:1;stroke:none;stroke-width:6.63707"
       x="2078.3894"
       y="1112.76"
       id="text845"><tspan
         sodipodi:role="line"
         id="tspan843"
         x="2078.3894"
         y="1112.76"
         style="text-align:center;text-anchor:middle;fill:#f5e7e7;stroke-width:6.63707">V</tspan></text>
    <text
       xml:space="preserve"
       style="font-style:normal;font-variant:normal;font-weight:800;font-stretch:normal;font-size:265.482px;line-height:1.25;font-family:'Input Sans';-inkscape-font-specification:'Input Sans, Ultra-Bold';font-variant-ligatures:normal;font-variant-caps:normal;font-variant-numeric:normal;font-variant-east-asian:normal;text-align:center;text-anchor:middle;fill:#f5e7e7;fill-opacity:1;stroke:none;stroke-width:6.63707"
       x="2085.5364"
       y="1326.6909"
       id="text853"><tspan
         sodipodi:role="line"
         id="tspan851"
         x="2085.5364"
         y="1326.6909"
         style="text-align:center;text-anchor:middle;fill:#f5e7e7;stroke-width:6.63707">2</tspan></text>
  </g>
</svg>
